# xmcd
#
# Track frame offsets:
#	150
#	18642
#	36141
#	56539
#	77530
#	93230
#	107607
#	120692
#	136410
#	154157
#	170158
#	190386
#	206956
#	225528
#	241038
#
# Disc length: 3459 seconds
#
# Revision: 1
# Processed by: cddbd v1.5.2PL0 Copyright (c) Steve Scherf et al.
# Submitted via: audiograbber 1.83.01
#
DISCID=c50d810f
DTITLE=Various Artist - CBCDG60219
DYEAR=2001
DGENRE=Karaoke
TTITLE0=Diamond Rio - Sweet Summer
TTITLE1=Trick Pony - On A Night Like This
TTITLE2=Mark Wills - Loving Every Minute
TTITLE3=SHeDAISY - Still Holding Out For you
TTITLE4=Alabama - Will You Marry me
TTITLE5=Kortney Kayle - Unbroken By You
TTITLE6=Trent Summer - Paint Your name In Purple
TTITLE7=Kristin Garner - Let's Burn It Down
TTITLE8=Neal Coty - You Get Lucky
TTITLE9=Clarice Rose - A Mile A Minute
TTITLE10=Tyler England - I'd Rather Have Nothing
TTITLE11=Clark Family - Standin' Still
TTITLE12=Meredith Edwards - The bird Song
TTITLE13=Dwight Yoakam - I Want You To Want Me
TTITLE14=John Michael Montgomery - Even Then
EXTD=
EXTT0=
EXTT1=
EXTT2=
EXTT3=
EXTT4=
EXTT5=
EXTT6=
EXTT7=
EXTT8=
EXTT9=
EXTT10=
EXTT11=
EXTT12=
EXTT13=
EXTT14=
PLAYORDER=
